<?xml version="1.0" encoding="utf-8"?>
<!-- Generator: Adobe Illustrator 24.0.1, SVG Export Plug-In . SVG Version: 6.00 Build 0)  -->
<svg version="1.1" id="Layer_1" xmlns="http://www.w3.org/2000/svg" xmlns:xlink="http://www.w3.org/1999/xlink" x="0px" y="0px"
	 viewBox="0 0 16.7 15.44" style="enable-background:new 0 0 16.7 15.44;" xml:space="preserve">
<style type="text/css">
	.st0{fill:#3B7B1D;}
	.st1{clip-path:url(#SVGID_59_);}
	.st2{fill:#202020;}
	.st3{fill:#111111;}
	.st4{fill:#141620;}
	.st5{fill:#3F8120;}
	.st6{fill:#F4F4F4;}
	.st7{clip-path:url(#SVGID_61_);}
	.st8{fill:#E84920;}
	.st9{clip-path:url(#SVGID_62_);}
	.st10{clip-path:url(#SVGID_64_);}
	.st11{clip-path:url(#SVGID_66_);}
	.st12{clip-path:url(#SVGID_68_);}
	.st13{clip-path:url(#SVGID_70_);}
	.st14{clip-path:url(#SVGID_72_);}
	.st15{clip-path:url(#SVGID_74_);}
	.st16{clip-path:url(#SVGID_77_);}
	.st17{clip-path:url(#SVGID_79_);}
	.st18{clip-path:url(#SVGID_81_);}
	.st19{clip-path:url(#SVGID_83_);}
	.st20{clip-path:url(#SVGID_85_);}
	.st21{clip-path:url(#SVGID_87_);}
	.st22{fill:#411F38;}
	.st23{fill:#FFFFFF;}
	.st24{fill:#DDDDDD;}
	.st25{fill:url(#SVGID_88_);}
	.st26{fill:url(#SVGID_90_);}
	.st27{fill:#347673;}
	.st28{fill:#71294D;}
	.st29{opacity:0.76;}
	.st30{clip-path:url(#SVGID_91_);fill:#71294D;}
	.st31{fill:#282B34;}
	.st32{fill:none;stroke:#3B7B1D;stroke-width:3;stroke-miterlimit:10;}
	.st33{fill:#636363;}
	.st34{fill:#EFEFEF;}
	.st35{fill:#009FE3;}
	.st36{fill:#E94E1B;}
	.st37{fill:#009640;}
	.st38{fill:#FFED00;}
	.st39{clip-path:url(#SVGID_95_);}
	.st40{clip-path:url(#SVGID_96_);}
	.st41{clip-path:url(#SVGID_98_);}
	.st42{clip-path:url(#SVGID_100_);}
	.st43{clip-path:url(#SVGID_102_);}
	.st44{clip-path:url(#SVGID_104_);}
	.st45{clip-path:url(#SVGID_106_);}
	.st46{clip-path:url(#SVGID_108_);}
	.st47{clip-path:url(#SVGID_110_);}
	.st48{clip-path:url(#SVGID_112_);}
	.st49{clip-path:url(#SVGID_114_);}
	.st50{clip-path:url(#SVGID_116_);}
	.st51{clip-path:url(#SVGID_118_);}
	.st52{clip-path:url(#SVGID_120_);}
	.st53{fill:url(#SVGID_121_);}
	.st54{fill:url(#SVGID_123_);}
	.st55{clip-path:url(#SVGID_124_);fill:#71294D;}
	.st56{opacity:0.5;fill:#EFEFEF;}
	.st57{fill:#E30613;}
	.st58{fill:#161616;}
	.st59{fill:#555561;}
	.st60{fill:#B2B2B2;}
	.st61{fill:none;stroke:#3B7B1D;stroke-width:0.5;stroke-miterlimit:10;}
	.st62{fill:#191919;}
	.st63{fill-rule:evenodd;clip-rule:evenodd;fill:#191919;}
	.st64{fill-rule:evenodd;clip-rule:evenodd;fill:#3B7B1D;}
	.st65{fill:#32BA46;}
	.st66{fill-rule:evenodd;clip-rule:evenodd;fill:#FFFFFF;}
	.st67{fill:none;}
</style>
<path class="st0" d="M16.68,0.35c-0.02,0.07-0.04,0.13-0.06,0.19c-0.04,0.11-0.08,0.23-0.12,0.34c-1.34,4.27-2.68,8.54-4.02,12.8
	c-0.1,0.32-0.21,0.37-0.51,0.23c-0.9-0.43-1.8-0.86-2.7-1.29c-0.06-0.03-0.12-0.05-0.18-0.08c-0.44,0.51-0.88,1.01-1.31,1.52
	c-0.35,0.41-0.71,0.82-1.06,1.23c-0.08,0.09-0.17,0.17-0.31,0.14c-0.14-0.04-0.18-0.16-0.19-0.29C6.14,14.22,6.07,13.3,6,12.38
	c-0.04-0.51-0.07-1.03-0.12-1.54c-0.02-0.18,0.03-0.32,0.16-0.45l7.7-7.37l-0.06-0.06l-8.56,7.17c-0.18,0.14-0.33,0.15-0.53,0.05
	C3.14,9.46,1.7,8.76,0.26,8.05C0.22,8.03,0.18,8.01,0.14,7.99c-0.19-0.12-0.19-0.33,0-0.44C0.23,7.5,0.33,7.46,0.42,7.41
	c5.26-2.45,10.52-4.89,15.79-7.34c0.08-0.04,0.18-0.09,0.28-0.08c0.05,0.01,0.1,0.05,0.14,0.08C16.71,0.16,16.71,0.26,16.68,0.35z"
	/>
</svg>
