<?xml version="1.0" encoding="utf-8"?>
<!-- Generator: Adobe Illustrator 24.0.1, SVG Export Plug-In . SVG Version: 6.00 Build 0)  -->
<svg version="1.1" id="Layer_1" xmlns="http://www.w3.org/2000/svg" xmlns:xlink="http://www.w3.org/1999/xlink" x="0px" y="0px"
	 viewBox="0 0 118 20" style="enable-background:new 0 0 118 20;" xml:space="preserve">
<style type="text/css">
	.st0{fill:#3B7B1D;}
	.st1{clip-path:url(#SVGID_59_);}
	.st2{fill:#202020;}
	.st3{fill:#111111;}
	.st4{fill:#141620;}
	.st5{fill:#3F8120;}
	.st6{fill:#F4F4F4;}
	.st7{clip-path:url(#SVGID_61_);}
	.st8{fill:#E84920;}
	.st9{clip-path:url(#SVGID_62_);}
	.st10{clip-path:url(#SVGID_64_);}
	.st11{clip-path:url(#SVGID_66_);}
	.st12{clip-path:url(#SVGID_68_);}
	.st13{clip-path:url(#SVGID_70_);}
	.st14{clip-path:url(#SVGID_72_);}
	.st15{clip-path:url(#SVGID_74_);}
	.st16{clip-path:url(#SVGID_77_);}
	.st17{clip-path:url(#SVGID_79_);}
	.st18{clip-path:url(#SVGID_81_);}
	.st19{clip-path:url(#SVGID_83_);}
	.st20{clip-path:url(#SVGID_85_);}
	.st21{clip-path:url(#SVGID_87_);}
	.st22{fill:#411F38;}
	.st23{fill:#FFFFFF;}
	.st24{fill:#DDDDDD;}
	.st25{fill:url(#SVGID_88_);}
	.st26{fill:url(#SVGID_90_);}
	.st27{fill:#347673;}
	.st28{fill:#71294D;}
	.st29{opacity:0.76;}
	.st30{clip-path:url(#SVGID_91_);fill:#71294D;}
	.st31{fill:#282B34;}
	.st32{fill:none;stroke:#3B7B1D;stroke-width:3;stroke-miterlimit:10;}
	.st33{fill:#636363;}
	.st34{fill:#EFEFEF;}
	.st35{fill:#009FE3;}
	.st36{fill:#E94E1B;}
	.st37{fill:#009640;}
	.st38{fill:#FFED00;}
	.st39{clip-path:url(#SVGID_95_);}
	.st40{clip-path:url(#SVGID_96_);}
	.st41{clip-path:url(#SVGID_98_);}
	.st42{clip-path:url(#SVGID_100_);}
	.st43{clip-path:url(#SVGID_102_);}
	.st44{clip-path:url(#SVGID_104_);}
	.st45{clip-path:url(#SVGID_106_);}
	.st46{clip-path:url(#SVGID_108_);}
	.st47{clip-path:url(#SVGID_110_);}
	.st48{clip-path:url(#SVGID_112_);}
	.st49{clip-path:url(#SVGID_114_);}
	.st50{clip-path:url(#SVGID_116_);}
	.st51{clip-path:url(#SVGID_118_);}
	.st52{clip-path:url(#SVGID_120_);}
	.st53{fill:url(#SVGID_121_);}
	.st54{fill:url(#SVGID_123_);}
	.st55{clip-path:url(#SVGID_124_);fill:#71294D;}
	.st56{opacity:0.5;fill:#EFEFEF;}
	.st57{fill:#E30613;}
	.st58{fill:#161616;}
	.st59{fill:#555561;}
	.st60{fill:#B2B2B2;}
	.st61{fill:none;stroke:#3B7B1D;stroke-width:0.5;stroke-miterlimit:10;}
	.st62{fill:#191919;}
	.st63{fill-rule:evenodd;clip-rule:evenodd;fill:#191919;}
	.st64{fill-rule:evenodd;clip-rule:evenodd;fill:#3B7B1D;}
	.st65{fill:#32BA46;}
	.st66{fill-rule:evenodd;clip-rule:evenodd;fill:#FFFFFF;}
	.st67{fill:none;}
</style>
<g>
	<path class="st65" d="M107.97,0H10.13C4.53,0,0,4.48,0,10c0,5.52,4.53,10,10.13,10c0.66,0,1.31-0.07,1.94-0.19h95.9
		c5.54,0,10.03-4.44,10.03-9.91v0C118,4.44,113.51,0,107.97,0z"/>
	<path class="st23" d="M4.63,15.73l0.84-3.15C5,11.72,4.75,10.75,4.75,9.77c0-3.21,2.61-5.82,5.82-5.82c3.21,0,5.82,2.61,5.82,5.82
		c0,3.21-2.61,5.82-5.82,5.82c-0.96,0-1.91-0.24-2.77-0.71L4.63,15.73z M7.96,13.7l0.2,0.12c0.73,0.44,1.57,0.67,2.41,0.67
		c2.6,0,4.72-2.12,4.72-4.72c0-2.6-2.12-4.72-4.72-4.72c-2.6,0-4.72,2.12-4.72,4.72c0,0.86,0.24,1.71,0.69,2.45l0.12,0.2l-0.47,1.76
		L7.96,13.7z"/>
	<path class="st66" d="M12.73,10.58c-0.24-0.14-0.55-0.3-0.83-0.19c-0.22,0.09-0.35,0.43-0.49,0.6c-0.07,0.09-0.16,0.1-0.27,0.06
		c-0.81-0.32-1.44-0.87-1.88-1.61C9.18,9.32,9.19,9.23,9.28,9.12c0.14-0.16,0.31-0.34,0.34-0.56C9.66,8.35,9.56,8.1,9.47,7.91
		C9.36,7.66,9.23,7.31,8.98,7.18C8.76,7.05,8.46,7.12,8.26,7.28C7.92,7.57,7.75,8.01,7.75,8.45c0,0.12,0.02,0.25,0.05,0.37
		C7.87,9.1,8,9.37,8.15,9.63c0.11,0.19,0.24,0.38,0.37,0.56c0.43,0.59,0.98,1.1,1.6,1.49c0.31,0.19,0.65,0.36,1,0.48
		c0.39,0.13,0.74,0.26,1.16,0.18c0.44-0.08,0.88-0.36,1.05-0.78c0.05-0.13,0.08-0.27,0.05-0.4C13.33,10.88,12.96,10.71,12.73,10.58z
		"/>
	<g>
		<path class="st23" d="M27.46,6.37h4.15v1.03h-3.03v1.76h2.2v0.99h-2.2v2.8h-1.11V6.37z"/>
		<path class="st23" d="M34.4,6.35h1.09l2.33,6.61h-1.14l-0.53-1.57h-2.5l-0.54,1.57h-1.04L34.4,6.35z M35.83,10.41l-0.9-2.67h-0.02
			l-0.92,2.67H35.83z"/>
		<path class="st23" d="M39.51,6.37h1.11v5.57h3.03v1.01h-4.15V6.37z"/>
		<path class="st23" d="M45.36,6.37h4.25v1.03h-3.14v1.64h2.3v0.99h-2.3v1.91h3.32v1.01h-4.43V6.37z"/>
		<path class="st23" d="M54.21,9.65c0-2.21,1.24-3.4,2.89-3.4c1.53,0,2.26,0.85,2.55,2.05L58.6,8.6c-0.25-0.87-0.63-1.32-1.5-1.32
			c-1.11,0-1.76,0.86-1.76,2.36c0,1.57,0.67,2.43,1.78,2.43c0.85,0,1.33-0.43,1.58-1.42l1.06,0.24c-0.32,1.31-1.13,2.19-2.65,2.19
			C55.41,13.08,54.21,11.92,54.21,9.65z"/>
		<path class="st23" d="M61.21,9.66c0-2.21,1.31-3.42,2.98-3.42c1.66,0,2.96,1.2,2.96,3.42c0,2.22-1.3,3.42-2.96,3.42
			C62.52,13.08,61.21,11.88,61.21,9.66z M66.03,9.66c0-1.55-0.74-2.39-1.84-2.39c-1.12,0-1.86,0.84-1.86,2.39s0.74,2.41,1.86,2.41
			C65.29,12.08,66.03,11.21,66.03,9.66z"/>
		<path class="st23" d="M69.04,6.37h1.13l3.11,4.7h0.02v-4.7h1.03v6.58h-1.01l-3.23-4.79h-0.02v4.79h-1.03V6.37z"/>
		<path class="st23" d="M76.21,9.66c0-2.21,1.31-3.42,2.98-3.42c1.66,0,2.96,1.2,2.96,3.42c0,2.22-1.3,3.42-2.96,3.42
			C77.52,13.08,76.21,11.88,76.21,9.66z M81.03,9.66c0-1.55-0.74-2.39-1.84-2.39c-1.12,0-1.86,0.84-1.86,2.39s0.74,2.41,1.86,2.41
			C80.3,12.08,81.03,11.21,81.03,9.66z"/>
		<path class="st23" d="M83.6,11.41l0.88-0.46c0.39,0.77,1,1.15,1.81,1.15c0.8,0,1.34-0.26,1.34-0.85c0-0.57-0.41-0.84-1.49-1.16
			c-1.27-0.37-2.29-0.72-2.29-1.97c0-1.12,0.92-1.86,2.25-1.86c1.3,0,2.06,0.64,2.46,1.42l-0.81,0.56
			c-0.39-0.66-0.95-0.96-1.66-0.96c-0.73,0-1.15,0.27-1.15,0.75c0,0.61,0.47,0.82,1.55,1.14c1.25,0.36,2.24,0.77,2.24,2.01
			c0,1.08-0.92,1.92-2.48,1.92C84.94,13.08,84.02,12.4,83.6,11.41z"/>
		<path class="st23" d="M90.24,9.65c0-2.21,1.24-3.4,2.89-3.4c1.53,0,2.26,0.85,2.55,2.05l-1.06,0.3c-0.25-0.87-0.63-1.32-1.5-1.32
			c-1.11,0-1.76,0.86-1.76,2.36c0,1.57,0.67,2.43,1.78,2.43c0.85,0,1.33-0.43,1.58-1.42l1.06,0.24c-0.32,1.31-1.13,2.19-2.65,2.19
			C91.44,13.08,90.24,11.92,90.24,9.65z"/>
		<path class="st23" d="M97.24,9.66c0-2.21,1.31-3.42,2.98-3.42c1.66,0,2.96,1.2,2.96,3.42c0,2.22-1.3,3.42-2.96,3.42
			C98.55,13.08,97.24,11.88,97.24,9.66z M102.06,9.66c0-1.55-0.74-2.39-1.84-2.39c-1.12,0-1.86,0.84-1.86,2.39s0.74,2.41,1.86,2.41
			C101.33,12.08,102.06,11.21,102.06,9.66z"/>
	</g>
</g>
</svg>
